<mxfile host="Electron" agent="Mozilla/5.0 (Windows NT 10.0; Win64; x64) AppleWebKit/537.36 (KHTML, like Gecko) draw.io/26.2.2 Chrome/134.0.6998.178 Electron/35.1.2 Safari/537.36" version="26.2.2">
  <diagram name="Page-1" id="e7e014a7-5840-1c2e-5031-d8a46d1fe8dd">
    <mxGraphModel dx="1503" dy="921" grid="1" gridSize="10" guides="1" tooltips="1" connect="1" arrows="1" fold="1" page="1" pageScale="1" pageWidth="3300" pageHeight="2339" background="none" math="0" shadow="0">
      <root>
        <mxCell id="0" />
        <mxCell id="1" parent="0" />
        <mxCell id="2" value="put主逻辑" style="swimlane;whiteSpace=wrap;fillColor=#dae8fc;strokeColor=#6c8ebf;" parent="1" vertex="1">
          <mxGeometry x="292" y="248" width="400" height="890" as="geometry" />
        </mxCell>
        <mxCell id="5" value="" style="ellipse;shape=startState;fillColor=#000000;strokeColor=#ff0000;" parent="2" vertex="1">
          <mxGeometry x="100" y="40" width="30" height="30" as="geometry" />
        </mxCell>
        <mxCell id="6" value="" style="edgeStyle=elbowEdgeStyle;elbow=horizontal;verticalAlign=bottom;endArrow=open;endSize=8;strokeColor=#FF0000;endFill=1;rounded=0" parent="2" source="5" target="7" edge="1">
          <mxGeometry x="100" y="40" as="geometry">
            <mxPoint x="115" y="110" as="targetPoint" />
          </mxGeometry>
        </mxCell>
        <mxCell id="7" value="计算key的hash值" style="fillColor=#dae8fc;strokeColor=#6c8ebf;" parent="2" vertex="1">
          <mxGeometry x="60" y="110" width="110" height="50" as="geometry" />
        </mxCell>
        <mxCell id="9" value="" style="endArrow=open;strokeColor=#FF0000;endFill=1;rounded=0;entryX=0.5;entryY=0;entryDx=0;entryDy=0;" parent="2" source="7" target="zHE1JwHKK3ZuFAWgDvep-48" edge="1">
          <mxGeometry relative="1" as="geometry">
            <mxPoint x="115" y="190" as="targetPoint" />
          </mxGeometry>
        </mxCell>
        <mxCell id="zHE1JwHKK3ZuFAWgDvep-53" style="edgeStyle=orthogonalEdgeStyle;rounded=0;orthogonalLoop=1;jettySize=auto;html=1;exitX=0.5;exitY=1;exitDx=0;exitDy=0;strokeColor=#FF5D18;" edge="1" parent="2" source="zHE1JwHKK3ZuFAWgDvep-48" target="zHE1JwHKK3ZuFAWgDvep-50">
          <mxGeometry relative="1" as="geometry" />
        </mxCell>
        <mxCell id="zHE1JwHKK3ZuFAWgDvep-98" value="N" style="edgeLabel;html=1;align=center;verticalAlign=middle;resizable=0;points=[];" vertex="1" connectable="0" parent="zHE1JwHKK3ZuFAWgDvep-53">
          <mxGeometry x="-0.64" y="2" relative="1" as="geometry">
            <mxPoint as="offset" />
          </mxGeometry>
        </mxCell>
        <mxCell id="zHE1JwHKK3ZuFAWgDvep-48" value="哈希表table是否为空或者&lt;div&gt;长度&lt;span style=&quot;background-color: transparent; color: light-dark(rgb(0, 0, 0), rgb(255, 255, 255));&quot;&gt;是否为0&lt;/span&gt;&lt;/div&gt;" style="rhombus;whiteSpace=wrap;html=1;fillColor=#dae8fc;strokeColor=#6c8ebf;" vertex="1" parent="2">
          <mxGeometry x="27.5" y="180" width="175" height="80" as="geometry" />
        </mxCell>
        <mxCell id="zHE1JwHKK3ZuFAWgDvep-55" style="edgeStyle=orthogonalEdgeStyle;rounded=0;orthogonalLoop=1;jettySize=auto;html=1;strokeColor=#FF5D18;" edge="1" parent="2" source="zHE1JwHKK3ZuFAWgDvep-50" target="zHE1JwHKK3ZuFAWgDvep-54">
          <mxGeometry relative="1" as="geometry" />
        </mxCell>
        <mxCell id="zHE1JwHKK3ZuFAWgDvep-50" value="计算该key对应的哈希桶位置（table数组索引）" style="rounded=0;whiteSpace=wrap;html=1;fillColor=#dae8fc;strokeColor=#6c8ebf;" vertex="1" parent="2">
          <mxGeometry x="55" y="300" width="120" height="60" as="geometry" />
        </mxCell>
        <mxCell id="zHE1JwHKK3ZuFAWgDvep-57" style="edgeStyle=orthogonalEdgeStyle;rounded=0;orthogonalLoop=1;jettySize=auto;html=1;strokeColor=light-dark(#e10909, #ededed);" edge="1" parent="2" source="zHE1JwHKK3ZuFAWgDvep-54" target="zHE1JwHKK3ZuFAWgDvep-56">
          <mxGeometry relative="1" as="geometry" />
        </mxCell>
        <mxCell id="zHE1JwHKK3ZuFAWgDvep-101" value="Y" style="edgeLabel;html=1;align=center;verticalAlign=middle;resizable=0;points=[];" vertex="1" connectable="0" parent="zHE1JwHKK3ZuFAWgDvep-57">
          <mxGeometry x="-0.2857" y="3" relative="1" as="geometry">
            <mxPoint as="offset" />
          </mxGeometry>
        </mxCell>
        <mxCell id="zHE1JwHKK3ZuFAWgDvep-62" style="edgeStyle=orthogonalEdgeStyle;rounded=0;orthogonalLoop=1;jettySize=auto;html=1;entryX=0;entryY=0.5;entryDx=0;entryDy=0;strokeColor=light-dark(#ed0c0c, #ededed);" edge="1" parent="2" source="zHE1JwHKK3ZuFAWgDvep-54" target="zHE1JwHKK3ZuFAWgDvep-61">
          <mxGeometry relative="1" as="geometry" />
        </mxCell>
        <mxCell id="zHE1JwHKK3ZuFAWgDvep-100" value="N" style="edgeLabel;html=1;align=center;verticalAlign=middle;resizable=0;points=[];" vertex="1" connectable="0" parent="zHE1JwHKK3ZuFAWgDvep-62">
          <mxGeometry x="-0.1789" y="-1" relative="1" as="geometry">
            <mxPoint as="offset" />
          </mxGeometry>
        </mxCell>
        <mxCell id="zHE1JwHKK3ZuFAWgDvep-54" value="table[i]==null" style="rhombus;whiteSpace=wrap;html=1;fillColor=#dae8fc;strokeColor=#6c8ebf;" vertex="1" parent="2">
          <mxGeometry x="27.5" y="380" width="175" height="80" as="geometry" />
        </mxCell>
        <mxCell id="zHE1JwHKK3ZuFAWgDvep-66" style="edgeStyle=orthogonalEdgeStyle;rounded=0;orthogonalLoop=1;jettySize=auto;html=1;strokeColor=light-dark(#ED0C0C,#EDEDED);" edge="1" parent="2" source="zHE1JwHKK3ZuFAWgDvep-56" target="zHE1JwHKK3ZuFAWgDvep-65">
          <mxGeometry relative="1" as="geometry" />
        </mxCell>
        <mxCell id="zHE1JwHKK3ZuFAWgDvep-56" value="直接插入新的节点" style="rounded=0;whiteSpace=wrap;html=1;fillColor=#dae8fc;strokeColor=#6c8ebf;" vertex="1" parent="2">
          <mxGeometry x="55" y="530" width="120" height="60" as="geometry" />
        </mxCell>
        <mxCell id="zHE1JwHKK3ZuFAWgDvep-64" style="edgeStyle=orthogonalEdgeStyle;rounded=0;orthogonalLoop=1;jettySize=auto;html=1;entryX=0.5;entryY=0;entryDx=0;entryDy=0;strokeColor=light-dark(#f70808, #ededed);" edge="1" parent="2" source="zHE1JwHKK3ZuFAWgDvep-61" target="zHE1JwHKK3ZuFAWgDvep-63">
          <mxGeometry relative="1" as="geometry" />
        </mxCell>
        <mxCell id="zHE1JwHKK3ZuFAWgDvep-104" value="Y" style="edgeLabel;html=1;align=center;verticalAlign=middle;resizable=0;points=[];" vertex="1" connectable="0" parent="zHE1JwHKK3ZuFAWgDvep-64">
          <mxGeometry x="-0.2857" y="-2" relative="1" as="geometry">
            <mxPoint as="offset" />
          </mxGeometry>
        </mxCell>
        <mxCell id="zHE1JwHKK3ZuFAWgDvep-61" value="桶上的key是否与&lt;div&gt;当前key一致&lt;/div&gt;" style="rhombus;whiteSpace=wrap;html=1;fillColor=#dae8fc;strokeColor=#6c8ebf;" vertex="1" parent="2">
          <mxGeometry x="250" y="380" width="140" height="80" as="geometry" />
        </mxCell>
        <mxCell id="zHE1JwHKK3ZuFAWgDvep-67" style="edgeStyle=orthogonalEdgeStyle;rounded=0;orthogonalLoop=1;jettySize=auto;html=1;entryX=0.5;entryY=0;entryDx=0;entryDy=0;strokeColor=light-dark(#ed0707, #ededed);" edge="1" parent="2" source="zHE1JwHKK3ZuFAWgDvep-63" target="zHE1JwHKK3ZuFAWgDvep-65">
          <mxGeometry relative="1" as="geometry">
            <Array as="points">
              <mxPoint x="320" y="670" />
              <mxPoint x="115" y="670" />
            </Array>
          </mxGeometry>
        </mxCell>
        <mxCell id="zHE1JwHKK3ZuFAWgDvep-63" value="覆盖旧值" style="rounded=0;whiteSpace=wrap;html=1;fillColor=#dae8fc;strokeColor=#6c8ebf;" vertex="1" parent="2">
          <mxGeometry x="260" y="530" width="120" height="60" as="geometry" />
        </mxCell>
        <mxCell id="zHE1JwHKK3ZuFAWgDvep-72" style="edgeStyle=orthogonalEdgeStyle;rounded=0;orthogonalLoop=1;jettySize=auto;html=1;entryX=0.5;entryY=0;entryDx=0;entryDy=0;strokeColor=light-dark(#eb0505, #ededed);" edge="1" parent="2" source="zHE1JwHKK3ZuFAWgDvep-65" target="zHE1JwHKK3ZuFAWgDvep-70">
          <mxGeometry relative="1" as="geometry" />
        </mxCell>
        <mxCell id="zHE1JwHKK3ZuFAWgDvep-103" value="N" style="edgeLabel;html=1;align=center;verticalAlign=middle;resizable=0;points=[];" vertex="1" connectable="0" parent="zHE1JwHKK3ZuFAWgDvep-72">
          <mxGeometry x="-0.7" y="-2" relative="1" as="geometry">
            <mxPoint as="offset" />
          </mxGeometry>
        </mxCell>
        <mxCell id="zHE1JwHKK3ZuFAWgDvep-65" value="当前容量是否触发扩容&lt;div&gt;++size &amp;gt; threshold&lt;/div&gt;" style="rhombus;whiteSpace=wrap;html=1;fillColor=#dae8fc;strokeColor=#6c8ebf;" vertex="1" parent="2">
          <mxGeometry x="27.5" y="720" width="175" height="80" as="geometry" />
        </mxCell>
        <mxCell id="zHE1JwHKK3ZuFAWgDvep-70" value="" style="ellipse;shape=endState;fillColor=#000000;strokeColor=#ff0000" vertex="1" parent="2">
          <mxGeometry x="100" y="850" width="30" height="30" as="geometry" />
        </mxCell>
        <mxCell id="zHE1JwHKK3ZuFAWgDvep-68" value="resize扩容" style="rounded=0;whiteSpace=wrap;html=1;fillColor=#d5e8d4;strokeColor=#82b366;" vertex="1" parent="2">
          <mxGeometry x="430" y="730" width="120" height="60" as="geometry" />
        </mxCell>
        <mxCell id="zHE1JwHKK3ZuFAWgDvep-69" style="edgeStyle=orthogonalEdgeStyle;rounded=0;orthogonalLoop=1;jettySize=auto;html=1;strokeColor=#FF131A;" edge="1" parent="2" source="zHE1JwHKK3ZuFAWgDvep-65" target="zHE1JwHKK3ZuFAWgDvep-68">
          <mxGeometry relative="1" as="geometry" />
        </mxCell>
        <mxCell id="zHE1JwHKK3ZuFAWgDvep-102" value="Y" style="edgeLabel;html=1;align=center;verticalAlign=middle;resizable=0;points=[];" vertex="1" connectable="0" parent="zHE1JwHKK3ZuFAWgDvep-69">
          <mxGeometry x="-0.3978" y="-2" relative="1" as="geometry">
            <mxPoint as="offset" />
          </mxGeometry>
        </mxCell>
        <mxCell id="zHE1JwHKK3ZuFAWgDvep-73" style="edgeStyle=orthogonalEdgeStyle;rounded=0;orthogonalLoop=1;jettySize=auto;html=1;entryX=0.5;entryY=0;entryDx=0;entryDy=0;strokeColor=light-dark(#ec0909, #ededed);" edge="1" parent="2" source="zHE1JwHKK3ZuFAWgDvep-68" target="zHE1JwHKK3ZuFAWgDvep-70">
          <mxGeometry relative="1" as="geometry">
            <Array as="points">
              <mxPoint x="490" y="830" />
              <mxPoint x="115" y="830" />
            </Array>
          </mxGeometry>
        </mxCell>
        <mxCell id="3" value="resize扩容" style="swimlane;whiteSpace=wrap;startSize=23;fillColor=#d5e8d4;strokeColor=#82b366;" parent="1" vertex="1">
          <mxGeometry x="692" y="248" width="160" height="890" as="geometry" />
        </mxCell>
        <mxCell id="zHE1JwHKK3ZuFAWgDvep-51" value="resize扩容" style="rounded=0;whiteSpace=wrap;html=1;fillColor=#d5e8d4;strokeColor=#82b366;" vertex="1" parent="3">
          <mxGeometry x="30" y="190" width="120" height="60" as="geometry" />
        </mxCell>
        <mxCell id="4" value="链表" style="swimlane;whiteSpace=wrap;fillColor=#fff2cc;strokeColor=#d6b656;" parent="1" vertex="1">
          <mxGeometry x="852" y="248" width="330" height="890" as="geometry" />
        </mxCell>
        <mxCell id="zHE1JwHKK3ZuFAWgDvep-77" style="edgeStyle=orthogonalEdgeStyle;rounded=0;orthogonalLoop=1;jettySize=auto;html=1;strokeColor=light-dark(#f10404, #ededed);" edge="1" parent="4" source="zHE1JwHKK3ZuFAWgDvep-74" target="zHE1JwHKK3ZuFAWgDvep-76">
          <mxGeometry relative="1" as="geometry" />
        </mxCell>
        <mxCell id="zHE1JwHKK3ZuFAWgDvep-106" value="N" style="edgeLabel;html=1;align=center;verticalAlign=middle;resizable=0;points=[];" vertex="1" connectable="0" parent="zHE1JwHKK3ZuFAWgDvep-77">
          <mxGeometry x="-0.1667" y="2" relative="1" as="geometry">
            <mxPoint as="offset" />
          </mxGeometry>
        </mxCell>
        <mxCell id="zHE1JwHKK3ZuFAWgDvep-74" value="table[i]是否为treeNode" style="rhombus;whiteSpace=wrap;html=1;fillColor=#fff2cc;strokeColor=#d6b656;" vertex="1" parent="4">
          <mxGeometry x="140" y="180" width="175" height="80" as="geometry" />
        </mxCell>
        <mxCell id="zHE1JwHKK3ZuFAWgDvep-83" style="edgeStyle=orthogonalEdgeStyle;rounded=0;orthogonalLoop=1;jettySize=auto;html=1;strokeColor=light-dark(#fd0d0d, #ededed);" edge="1" parent="4" source="zHE1JwHKK3ZuFAWgDvep-76" target="zHE1JwHKK3ZuFAWgDvep-78">
          <mxGeometry relative="1" as="geometry" />
        </mxCell>
        <mxCell id="zHE1JwHKK3ZuFAWgDvep-110" value="Y" style="edgeLabel;html=1;align=center;verticalAlign=middle;resizable=0;points=[];" vertex="1" connectable="0" parent="zHE1JwHKK3ZuFAWgDvep-83">
          <mxGeometry x="-0.6067" relative="1" as="geometry">
            <mxPoint as="offset" />
          </mxGeometry>
        </mxCell>
        <mxCell id="zHE1JwHKK3ZuFAWgDvep-85" style="edgeStyle=orthogonalEdgeStyle;rounded=0;orthogonalLoop=1;jettySize=auto;html=1;entryX=0.5;entryY=0;entryDx=0;entryDy=0;strokeColor=light-dark(#ed0c0c, #ededed);" edge="1" parent="4" source="zHE1JwHKK3ZuFAWgDvep-76" target="zHE1JwHKK3ZuFAWgDvep-84">
          <mxGeometry relative="1" as="geometry" />
        </mxCell>
        <mxCell id="zHE1JwHKK3ZuFAWgDvep-111" value="N" style="edgeLabel;html=1;align=center;verticalAlign=middle;resizable=0;points=[];" vertex="1" connectable="0" parent="zHE1JwHKK3ZuFAWgDvep-85">
          <mxGeometry x="-0.3219" y="-3" relative="1" as="geometry">
            <mxPoint as="offset" />
          </mxGeometry>
        </mxCell>
        <mxCell id="zHE1JwHKK3ZuFAWgDvep-76" value="遍历链表是否存在相同的key" style="rhombus;whiteSpace=wrap;html=1;fillColor=#fff2cc;strokeColor=#d6b656;" vertex="1" parent="4">
          <mxGeometry x="140" y="320" width="175" height="80" as="geometry" />
        </mxCell>
        <mxCell id="zHE1JwHKK3ZuFAWgDvep-78" value="覆盖旧key对应的value值" style="rounded=0;whiteSpace=wrap;html=1;fillColor=#fff2cc;strokeColor=#d6b656;" vertex="1" parent="4">
          <mxGeometry x="10" y="455" width="120" height="60" as="geometry" />
        </mxCell>
        <mxCell id="zHE1JwHKK3ZuFAWgDvep-87" style="edgeStyle=orthogonalEdgeStyle;rounded=0;orthogonalLoop=1;jettySize=auto;html=1;strokeColor=light-dark(#f00000, #ededed);" edge="1" parent="4" source="zHE1JwHKK3ZuFAWgDvep-84" target="zHE1JwHKK3ZuFAWgDvep-86">
          <mxGeometry relative="1" as="geometry" />
        </mxCell>
        <mxCell id="zHE1JwHKK3ZuFAWgDvep-84" value="尾插法" style="rounded=0;whiteSpace=wrap;html=1;fillColor=#fff2cc;strokeColor=#d6b656;" vertex="1" parent="4">
          <mxGeometry x="167.5" y="455" width="120" height="60" as="geometry" />
        </mxCell>
        <mxCell id="zHE1JwHKK3ZuFAWgDvep-86" value="链表长度是否大于8" style="rhombus;whiteSpace=wrap;html=1;fillColor=#fff2cc;strokeColor=#d6b656;" vertex="1" parent="4">
          <mxGeometry x="140" y="540" width="175" height="80" as="geometry" />
        </mxCell>
        <mxCell id="zHE1JwHKK3ZuFAWgDvep-41" value="红黑树" style="swimlane;whiteSpace=wrap;fillColor=#f8cecc;strokeColor=#b85450;" vertex="1" parent="1">
          <mxGeometry x="1182" y="248" width="230" height="890" as="geometry" />
        </mxCell>
        <mxCell id="zHE1JwHKK3ZuFAWgDvep-92" style="edgeStyle=orthogonalEdgeStyle;rounded=0;orthogonalLoop=1;jettySize=auto;html=1;exitX=0.5;exitY=1;exitDx=0;exitDy=0;strokeColor=#FF154C;" edge="1" parent="zHE1JwHKK3ZuFAWgDvep-41" source="zHE1JwHKK3ZuFAWgDvep-89" target="zHE1JwHKK3ZuFAWgDvep-90">
          <mxGeometry relative="1" as="geometry" />
        </mxCell>
        <mxCell id="zHE1JwHKK3ZuFAWgDvep-89" value="红黑树中遍历找到插入位置" style="rounded=0;whiteSpace=wrap;html=1;fillColor=#f8cecc;strokeColor=#b85450;" vertex="1" parent="zHE1JwHKK3ZuFAWgDvep-41">
          <mxGeometry x="55" y="190" width="120" height="60" as="geometry" />
        </mxCell>
        <mxCell id="zHE1JwHKK3ZuFAWgDvep-90" value="1、旋转&lt;div&gt;2、变色&lt;/div&gt;" style="rounded=0;whiteSpace=wrap;html=1;fillColor=#f8cecc;strokeColor=#b85450;" vertex="1" parent="zHE1JwHKK3ZuFAWgDvep-41">
          <mxGeometry x="55" y="300" width="120" height="60" as="geometry" />
        </mxCell>
        <mxCell id="zHE1JwHKK3ZuFAWgDvep-93" value="转换为红黑树" style="rounded=0;whiteSpace=wrap;html=1;fillColor=#f8cecc;strokeColor=#b85450;" vertex="1" parent="zHE1JwHKK3ZuFAWgDvep-41">
          <mxGeometry x="55" y="550" width="120" height="60" as="geometry" />
        </mxCell>
        <mxCell id="zHE1JwHKK3ZuFAWgDvep-52" style="edgeStyle=orthogonalEdgeStyle;rounded=0;orthogonalLoop=1;jettySize=auto;html=1;strokeColor=#FF5D18;" edge="1" parent="1" source="zHE1JwHKK3ZuFAWgDvep-48" target="zHE1JwHKK3ZuFAWgDvep-51">
          <mxGeometry relative="1" as="geometry" />
        </mxCell>
        <mxCell id="zHE1JwHKK3ZuFAWgDvep-97" value="Y" style="edgeLabel;html=1;align=center;verticalAlign=middle;resizable=0;points=[];" vertex="1" connectable="0" parent="zHE1JwHKK3ZuFAWgDvep-52">
          <mxGeometry x="-0.3714" y="-3" relative="1" as="geometry">
            <mxPoint as="offset" />
          </mxGeometry>
        </mxCell>
        <mxCell id="zHE1JwHKK3ZuFAWgDvep-75" style="edgeStyle=orthogonalEdgeStyle;rounded=0;orthogonalLoop=1;jettySize=auto;html=1;entryX=0;entryY=0.5;entryDx=0;entryDy=0;strokeColor=light-dark(#fd0808, #ededed);" edge="1" parent="1" source="zHE1JwHKK3ZuFAWgDvep-61" target="zHE1JwHKK3ZuFAWgDvep-74">
          <mxGeometry relative="1" as="geometry">
            <Array as="points">
              <mxPoint x="862" y="668" />
              <mxPoint x="862" y="468" />
            </Array>
          </mxGeometry>
        </mxCell>
        <mxCell id="zHE1JwHKK3ZuFAWgDvep-105" value="N" style="edgeLabel;html=1;align=center;verticalAlign=middle;resizable=0;points=[];" vertex="1" connectable="0" parent="zHE1JwHKK3ZuFAWgDvep-75">
          <mxGeometry x="-0.749" y="-2" relative="1" as="geometry">
            <mxPoint as="offset" />
          </mxGeometry>
        </mxCell>
        <mxCell id="zHE1JwHKK3ZuFAWgDvep-80" style="edgeStyle=orthogonalEdgeStyle;rounded=0;orthogonalLoop=1;jettySize=auto;html=1;entryX=1;entryY=0.5;entryDx=0;entryDy=0;fillColor=#FF5D18;strokeColor=light-dark(#f70202, #ededed);" edge="1" parent="1" source="zHE1JwHKK3ZuFAWgDvep-51" target="zHE1JwHKK3ZuFAWgDvep-50">
          <mxGeometry relative="1" as="geometry">
            <Array as="points">
              <mxPoint x="782" y="578" />
            </Array>
          </mxGeometry>
        </mxCell>
        <mxCell id="zHE1JwHKK3ZuFAWgDvep-88" style="edgeStyle=orthogonalEdgeStyle;rounded=0;orthogonalLoop=1;jettySize=auto;html=1;strokeColor=light-dark(#ff0a0a, #ededed);" edge="1" parent="1" source="zHE1JwHKK3ZuFAWgDvep-86" target="zHE1JwHKK3ZuFAWgDvep-65">
          <mxGeometry relative="1" as="geometry">
            <Array as="points">
              <mxPoint x="1080" y="918" />
              <mxPoint x="407" y="918" />
            </Array>
          </mxGeometry>
        </mxCell>
        <mxCell id="zHE1JwHKK3ZuFAWgDvep-108" value="N" style="edgeLabel;html=1;align=center;verticalAlign=middle;resizable=0;points=[];" vertex="1" connectable="0" parent="zHE1JwHKK3ZuFAWgDvep-88">
          <mxGeometry x="-0.9508" y="-3" relative="1" as="geometry">
            <mxPoint as="offset" />
          </mxGeometry>
        </mxCell>
        <mxCell id="zHE1JwHKK3ZuFAWgDvep-91" style="edgeStyle=orthogonalEdgeStyle;rounded=0;orthogonalLoop=1;jettySize=auto;html=1;entryX=0;entryY=0.5;entryDx=0;entryDy=0;strokeColor=light-dark(#ea0606, #ededed);" edge="1" parent="1" source="zHE1JwHKK3ZuFAWgDvep-74" target="zHE1JwHKK3ZuFAWgDvep-89">
          <mxGeometry relative="1" as="geometry" />
        </mxCell>
        <mxCell id="zHE1JwHKK3ZuFAWgDvep-107" value="Y" style="edgeLabel;html=1;align=center;verticalAlign=middle;resizable=0;points=[];" vertex="1" connectable="0" parent="zHE1JwHKK3ZuFAWgDvep-91">
          <mxGeometry x="0.1429" relative="1" as="geometry">
            <mxPoint as="offset" />
          </mxGeometry>
        </mxCell>
        <mxCell id="zHE1JwHKK3ZuFAWgDvep-94" style="edgeStyle=orthogonalEdgeStyle;rounded=0;orthogonalLoop=1;jettySize=auto;html=1;strokeColor=light-dark(#FF0A0A,#EDEDED);" edge="1" parent="1" source="zHE1JwHKK3ZuFAWgDvep-86" target="zHE1JwHKK3ZuFAWgDvep-93">
          <mxGeometry relative="1" as="geometry" />
        </mxCell>
        <mxCell id="zHE1JwHKK3ZuFAWgDvep-109" value="Y" style="edgeLabel;html=1;align=center;verticalAlign=middle;resizable=0;points=[];" vertex="1" connectable="0" parent="zHE1JwHKK3ZuFAWgDvep-94">
          <mxGeometry x="-0.1429" y="2" relative="1" as="geometry">
            <mxPoint as="offset" />
          </mxGeometry>
        </mxCell>
        <mxCell id="zHE1JwHKK3ZuFAWgDvep-95" style="edgeStyle=orthogonalEdgeStyle;rounded=0;orthogonalLoop=1;jettySize=auto;html=1;entryX=0.5;entryY=0;entryDx=0;entryDy=0;strokeColor=light-dark(#f70808, #ededed);" edge="1" parent="1" source="zHE1JwHKK3ZuFAWgDvep-93" target="zHE1JwHKK3ZuFAWgDvep-65">
          <mxGeometry relative="1" as="geometry">
            <Array as="points">
              <mxPoint x="1297" y="918" />
              <mxPoint x="407" y="918" />
            </Array>
          </mxGeometry>
        </mxCell>
        <mxCell id="zHE1JwHKK3ZuFAWgDvep-96" style="edgeStyle=orthogonalEdgeStyle;rounded=0;orthogonalLoop=1;jettySize=auto;html=1;entryX=0.5;entryY=0;entryDx=0;entryDy=0;strokeColor=#FF5D18;" edge="1" parent="1" source="zHE1JwHKK3ZuFAWgDvep-90" target="zHE1JwHKK3ZuFAWgDvep-65">
          <mxGeometry relative="1" as="geometry">
            <Array as="points">
              <mxPoint x="1382" y="578" />
              <mxPoint x="1382" y="918" />
              <mxPoint x="407" y="918" />
            </Array>
          </mxGeometry>
        </mxCell>
        <mxCell id="zHE1JwHKK3ZuFAWgDvep-99" style="edgeStyle=orthogonalEdgeStyle;rounded=0;orthogonalLoop=1;jettySize=auto;html=1;exitX=0.5;exitY=1;exitDx=0;exitDy=0;entryX=0.5;entryY=0;entryDx=0;entryDy=0;strokeColor=light-dark(#e70404, #ededed);" edge="1" parent="1" source="zHE1JwHKK3ZuFAWgDvep-78" target="zHE1JwHKK3ZuFAWgDvep-65">
          <mxGeometry relative="1" as="geometry">
            <Array as="points">
              <mxPoint x="922" y="918" />
              <mxPoint x="407" y="918" />
            </Array>
          </mxGeometry>
        </mxCell>
        <mxCell id="zHE1JwHKK3ZuFAWgDvep-115" style="edgeStyle=orthogonalEdgeStyle;rounded=0;orthogonalLoop=1;jettySize=auto;html=1;entryX=0.5;entryY=0;entryDx=0;entryDy=0;" edge="1" parent="1" source="zHE1JwHKK3ZuFAWgDvep-112" target="zHE1JwHKK3ZuFAWgDvep-114">
          <mxGeometry relative="1" as="geometry" />
        </mxCell>
        <mxCell id="zHE1JwHKK3ZuFAWgDvep-112" value="开始" style="ellipse;whiteSpace=wrap;html=1;" vertex="1" parent="1">
          <mxGeometry x="2030" y="410" width="180" height="42" as="geometry" />
        </mxCell>
        <mxCell id="zHE1JwHKK3ZuFAWgDvep-117" style="edgeStyle=orthogonalEdgeStyle;rounded=0;orthogonalLoop=1;jettySize=auto;html=1;entryX=0.5;entryY=0;entryDx=0;entryDy=0;" edge="1" parent="1" source="zHE1JwHKK3ZuFAWgDvep-114" target="zHE1JwHKK3ZuFAWgDvep-116">
          <mxGeometry relative="1" as="geometry" />
        </mxCell>
        <mxCell id="zHE1JwHKK3ZuFAWgDvep-160" value="Y" style="edgeLabel;html=1;align=center;verticalAlign=middle;resizable=0;points=[];" vertex="1" connectable="0" parent="zHE1JwHKK3ZuFAWgDvep-117">
          <mxGeometry x="0.247" y="-2" relative="1" as="geometry">
            <mxPoint as="offset" />
          </mxGeometry>
        </mxCell>
        <mxCell id="zHE1JwHKK3ZuFAWgDvep-121" style="edgeStyle=orthogonalEdgeStyle;rounded=0;orthogonalLoop=1;jettySize=auto;html=1;entryX=0.5;entryY=0;entryDx=0;entryDy=0;" edge="1" parent="1" source="zHE1JwHKK3ZuFAWgDvep-114" target="zHE1JwHKK3ZuFAWgDvep-120">
          <mxGeometry relative="1" as="geometry" />
        </mxCell>
        <mxCell id="zHE1JwHKK3ZuFAWgDvep-159" value="N" style="edgeLabel;html=1;align=center;verticalAlign=middle;resizable=0;points=[];" vertex="1" connectable="0" parent="zHE1JwHKK3ZuFAWgDvep-121">
          <mxGeometry x="-0.4883" y="-1" relative="1" as="geometry">
            <mxPoint as="offset" />
          </mxGeometry>
        </mxCell>
        <mxCell id="zHE1JwHKK3ZuFAWgDvep-114" value="oldcap&amp;gt;0" style="rhombus;whiteSpace=wrap;html=1;" vertex="1" parent="1">
          <mxGeometry x="2015" y="470" width="210" height="50" as="geometry" />
        </mxCell>
        <mxCell id="zHE1JwHKK3ZuFAWgDvep-119" style="edgeStyle=orthogonalEdgeStyle;rounded=0;orthogonalLoop=1;jettySize=auto;html=1;" edge="1" parent="1" source="zHE1JwHKK3ZuFAWgDvep-116" target="zHE1JwHKK3ZuFAWgDvep-118">
          <mxGeometry relative="1" as="geometry" />
        </mxCell>
        <mxCell id="zHE1JwHKK3ZuFAWgDvep-162" value="N" style="edgeLabel;html=1;align=center;verticalAlign=middle;resizable=0;points=[];" vertex="1" connectable="0" parent="zHE1JwHKK3ZuFAWgDvep-119">
          <mxGeometry x="-0.4196" y="-2" relative="1" as="geometry">
            <mxPoint as="offset" />
          </mxGeometry>
        </mxCell>
        <mxCell id="zHE1JwHKK3ZuFAWgDvep-158" style="edgeStyle=orthogonalEdgeStyle;rounded=0;orthogonalLoop=1;jettySize=auto;html=1;" edge="1" parent="1" source="zHE1JwHKK3ZuFAWgDvep-116" target="zHE1JwHKK3ZuFAWgDvep-147">
          <mxGeometry relative="1" as="geometry">
            <Array as="points">
              <mxPoint x="1840" y="575" />
              <mxPoint x="1840" y="1280" />
              <mxPoint x="2120" y="1280" />
            </Array>
          </mxGeometry>
        </mxCell>
        <mxCell id="zHE1JwHKK3ZuFAWgDvep-161" value="Y" style="edgeLabel;html=1;align=center;verticalAlign=middle;resizable=0;points=[];" vertex="1" connectable="0" parent="zHE1JwHKK3ZuFAWgDvep-158">
          <mxGeometry x="-0.9286" relative="1" as="geometry">
            <mxPoint as="offset" />
          </mxGeometry>
        </mxCell>
        <mxCell id="zHE1JwHKK3ZuFAWgDvep-116" value="oldCap 超过最大容量2^30" style="rhombus;whiteSpace=wrap;html=1;" vertex="1" parent="1">
          <mxGeometry x="2015" y="550" width="210" height="50" as="geometry" />
        </mxCell>
        <mxCell id="zHE1JwHKK3ZuFAWgDvep-123" style="edgeStyle=orthogonalEdgeStyle;rounded=0;orthogonalLoop=1;jettySize=auto;html=1;entryX=0.5;entryY=0;entryDx=0;entryDy=0;" edge="1" parent="1" source="zHE1JwHKK3ZuFAWgDvep-118" target="zHE1JwHKK3ZuFAWgDvep-122">
          <mxGeometry relative="1" as="geometry" />
        </mxCell>
        <mxCell id="zHE1JwHKK3ZuFAWgDvep-118" value="&lt;div&gt;newCap = oldCap &amp;lt;&amp;lt; 1&lt;/div&gt;newThr = oldThr &amp;lt;&amp;lt; 1&lt;div&gt;新容量和新阈值扩大2倍&lt;/div&gt;" style="rounded=0;whiteSpace=wrap;html=1;" vertex="1" parent="1">
          <mxGeometry x="2040" y="630" width="160" height="60" as="geometry" />
        </mxCell>
        <mxCell id="zHE1JwHKK3ZuFAWgDvep-124" style="edgeStyle=orthogonalEdgeStyle;rounded=0;orthogonalLoop=1;jettySize=auto;html=1;entryX=0.5;entryY=0;entryDx=0;entryDy=0;" edge="1" parent="1" source="zHE1JwHKK3ZuFAWgDvep-120" target="zHE1JwHKK3ZuFAWgDvep-122">
          <mxGeometry relative="1" as="geometry">
            <Array as="points">
              <mxPoint x="2360" y="700" />
              <mxPoint x="2120" y="700" />
            </Array>
          </mxGeometry>
        </mxCell>
        <mxCell id="zHE1JwHKK3ZuFAWgDvep-120" value="newCap = 16；&lt;div&gt;newThr = 12&lt;/div&gt;" style="rounded=0;whiteSpace=wrap;html=1;" vertex="1" parent="1">
          <mxGeometry x="2280" y="560" width="160" height="60" as="geometry" />
        </mxCell>
        <mxCell id="zHE1JwHKK3ZuFAWgDvep-127" style="edgeStyle=orthogonalEdgeStyle;rounded=0;orthogonalLoop=1;jettySize=auto;html=1;entryX=0.5;entryY=0;entryDx=0;entryDy=0;" edge="1" parent="1" source="zHE1JwHKK3ZuFAWgDvep-122" target="zHE1JwHKK3ZuFAWgDvep-134">
          <mxGeometry relative="1" as="geometry">
            <mxPoint x="2120" y="840" as="targetPoint" />
          </mxGeometry>
        </mxCell>
        <mxCell id="zHE1JwHKK3ZuFAWgDvep-163" value="Y" style="edgeLabel;html=1;align=center;verticalAlign=middle;resizable=0;points=[];" vertex="1" connectable="0" parent="zHE1JwHKK3ZuFAWgDvep-127">
          <mxGeometry x="-0.3109" relative="1" as="geometry">
            <mxPoint as="offset" />
          </mxGeometry>
        </mxCell>
        <mxCell id="zHE1JwHKK3ZuFAWgDvep-165" style="edgeStyle=orthogonalEdgeStyle;rounded=0;orthogonalLoop=1;jettySize=auto;html=1;entryX=0.5;entryY=0;entryDx=0;entryDy=0;" edge="1" parent="1" source="zHE1JwHKK3ZuFAWgDvep-122" target="zHE1JwHKK3ZuFAWgDvep-147">
          <mxGeometry relative="1" as="geometry">
            <Array as="points">
              <mxPoint x="1840" y="760" />
              <mxPoint x="1840" y="1280" />
              <mxPoint x="2120" y="1280" />
            </Array>
          </mxGeometry>
        </mxCell>
        <mxCell id="zHE1JwHKK3ZuFAWgDvep-166" value="N" style="edgeLabel;html=1;align=center;verticalAlign=middle;resizable=0;points=[];" vertex="1" connectable="0" parent="zHE1JwHKK3ZuFAWgDvep-165">
          <mxGeometry x="-0.8539" relative="1" as="geometry">
            <mxPoint as="offset" />
          </mxGeometry>
        </mxCell>
        <mxCell id="zHE1JwHKK3ZuFAWgDvep-122" value="j&amp;lt;oldCap&lt;div&gt;(遍历旧哈希表的所有桶)&lt;/div&gt;" style="rhombus;whiteSpace=wrap;html=1;" vertex="1" parent="1">
          <mxGeometry x="2015" y="720" width="210" height="80" as="geometry" />
        </mxCell>
        <mxCell id="zHE1JwHKK3ZuFAWgDvep-139" style="edgeStyle=orthogonalEdgeStyle;rounded=0;orthogonalLoop=1;jettySize=auto;html=1;" edge="1" parent="1" source="zHE1JwHKK3ZuFAWgDvep-134" target="zHE1JwHKK3ZuFAWgDvep-138">
          <mxGeometry relative="1" as="geometry" />
        </mxCell>
        <mxCell id="zHE1JwHKK3ZuFAWgDvep-174" value="N" style="edgeLabel;html=1;align=center;verticalAlign=middle;resizable=0;points=[];" vertex="1" connectable="0" parent="zHE1JwHKK3ZuFAWgDvep-139">
          <mxGeometry x="-0.3921" y="-2" relative="1" as="geometry">
            <mxPoint as="offset" />
          </mxGeometry>
        </mxCell>
        <mxCell id="zHE1JwHKK3ZuFAWgDvep-171" style="edgeStyle=orthogonalEdgeStyle;rounded=0;orthogonalLoop=1;jettySize=auto;html=1;entryX=0;entryY=0.5;entryDx=0;entryDy=0;" edge="1" parent="1" source="zHE1JwHKK3ZuFAWgDvep-134" target="zHE1JwHKK3ZuFAWgDvep-136">
          <mxGeometry relative="1" as="geometry" />
        </mxCell>
        <mxCell id="zHE1JwHKK3ZuFAWgDvep-173" value="Y" style="edgeLabel;html=1;align=center;verticalAlign=middle;resizable=0;points=[];" vertex="1" connectable="0" parent="zHE1JwHKK3ZuFAWgDvep-171">
          <mxGeometry x="-0.1467" y="-3" relative="1" as="geometry">
            <mxPoint as="offset" />
          </mxGeometry>
        </mxCell>
        <mxCell id="zHE1JwHKK3ZuFAWgDvep-134" value="&lt;div&gt;e = oldTab[j]&lt;/div&gt;e节点是树节点吗" style="rhombus;whiteSpace=wrap;html=1;" vertex="1" parent="1">
          <mxGeometry x="2015" y="830" width="210" height="80" as="geometry" />
        </mxCell>
        <mxCell id="zHE1JwHKK3ZuFAWgDvep-172" style="edgeStyle=orthogonalEdgeStyle;rounded=0;orthogonalLoop=1;jettySize=auto;html=1;entryX=1;entryY=0.5;entryDx=0;entryDy=0;" edge="1" parent="1" source="zHE1JwHKK3ZuFAWgDvep-136" target="zHE1JwHKK3ZuFAWgDvep-122">
          <mxGeometry relative="1" as="geometry">
            <Array as="points">
              <mxPoint x="2390" y="760" />
            </Array>
          </mxGeometry>
        </mxCell>
        <mxCell id="zHE1JwHKK3ZuFAWgDvep-136" value="((TreeNode&amp;lt;K,V&amp;gt;)e).split(this, newTab, j, oldCap);&lt;div&gt;走红黑树的插入逻辑&lt;/div&gt;" style="rounded=0;whiteSpace=wrap;html=1;" vertex="1" parent="1">
          <mxGeometry x="2300" y="840" width="160" height="60" as="geometry" />
        </mxCell>
        <mxCell id="zHE1JwHKK3ZuFAWgDvep-141" style="edgeStyle=orthogonalEdgeStyle;rounded=0;orthogonalLoop=1;jettySize=auto;html=1;entryX=0.5;entryY=0;entryDx=0;entryDy=0;" edge="1" parent="1" source="zHE1JwHKK3ZuFAWgDvep-138" target="zHE1JwHKK3ZuFAWgDvep-140">
          <mxGeometry relative="1" as="geometry" />
        </mxCell>
        <mxCell id="zHE1JwHKK3ZuFAWgDvep-138" value="开始遍历链表：&lt;div&gt;设置两个链表，一个高位链表hiHead，一个低位链表&lt;span style=&quot;background-color: transparent; color: light-dark(rgb(0, 0, 0), rgb(255, 255, 255));&quot;&gt;loHead&lt;/span&gt;&lt;/div&gt;&lt;div&gt;&lt;br&gt;&lt;/div&gt;" style="rounded=0;whiteSpace=wrap;html=1;align=left;fillColor=#f8cecc;strokeColor=#b85450;" vertex="1" parent="1">
          <mxGeometry x="1980" y="950" width="280" height="60" as="geometry" />
        </mxCell>
        <mxCell id="zHE1JwHKK3ZuFAWgDvep-143" style="edgeStyle=orthogonalEdgeStyle;rounded=0;orthogonalLoop=1;jettySize=auto;html=1;entryX=0.5;entryY=0;entryDx=0;entryDy=0;" edge="1" parent="1" source="zHE1JwHKK3ZuFAWgDvep-140" target="zHE1JwHKK3ZuFAWgDvep-142">
          <mxGeometry relative="1" as="geometry" />
        </mxCell>
        <mxCell id="zHE1JwHKK3ZuFAWgDvep-140" value="&lt;div&gt;如果当前节点(e.hash &amp;amp; oldCap) == 0，说明&lt;span style=&quot;background-color: transparent; color: light-dark(rgb(0, 0, 0), rgb(255, 255, 255));&quot;&gt;e.hash是&lt;/span&gt;&lt;span style=&quot;background-color: transparent; color: light-dark(rgb(0, 0, 0), rgb(255, 255, 255));&quot;&gt;oldCap的偶数倍。则&lt;/span&gt;&lt;span style=&quot;background-color: transparent; color: light-dark(rgb(0, 0, 0), rgb(255, 255, 255));&quot;&gt;e.hash %&amp;nbsp;&lt;/span&gt;&lt;span style=&quot;background-color: transparent; color: light-dark(rgb(0, 0, 0), rgb(255, 255, 255));&quot;&gt;oldCap*2的值不变。即新哈希表与旧哈希表的桶位不变，尾插法插入到低位链表中&lt;/span&gt;&lt;/div&gt;" style="rounded=0;whiteSpace=wrap;html=1;align=left;fillColor=#f8cecc;strokeColor=#b85450;" vertex="1" parent="1">
          <mxGeometry x="1980" y="1030" width="280" height="60" as="geometry" />
        </mxCell>
        <mxCell id="zHE1JwHKK3ZuFAWgDvep-145" style="edgeStyle=orthogonalEdgeStyle;rounded=0;orthogonalLoop=1;jettySize=auto;html=1;entryX=0.5;entryY=0;entryDx=0;entryDy=0;" edge="1" parent="1" source="zHE1JwHKK3ZuFAWgDvep-142" target="zHE1JwHKK3ZuFAWgDvep-144">
          <mxGeometry relative="1" as="geometry" />
        </mxCell>
        <mxCell id="zHE1JwHKK3ZuFAWgDvep-142" value="&lt;div&gt;如果当前节点(e.hash &amp;amp; oldCap) ！= 0，说明&lt;span style=&quot;background-color: transparent; color: light-dark(rgb(0, 0, 0), rgb(255, 255, 255));&quot;&gt;e.hash是&lt;/span&gt;&lt;span style=&quot;background-color: transparent; color: light-dark(rgb(0, 0, 0), rgb(255, 255, 255));&quot;&gt;oldCap的奇数倍。则&lt;/span&gt;&lt;span style=&quot;background-color: transparent; color: light-dark(rgb(0, 0, 0), rgb(255, 255, 255));&quot;&gt;e.hash %&amp;nbsp;&lt;/span&gt;&lt;span style=&quot;background-color: transparent; color: light-dark(rgb(0, 0, 0), rgb(255, 255, 255));&quot;&gt;oldCap*2的值会+oldCap。即新哈希表桶位=旧哈希表的桶位+&lt;/span&gt;&lt;span style=&quot;background-color: transparent; color: light-dark(rgb(0, 0, 0), rgb(255, 255, 255));&quot;&gt;oldCap&lt;/span&gt;&lt;span style=&quot;background-color: transparent; color: light-dark(rgb(0, 0, 0), rgb(255, 255, 255));&quot;&gt;，尾插法插入到高位链表中&lt;/span&gt;&lt;/div&gt;" style="rounded=0;whiteSpace=wrap;html=1;align=left;fillColor=#f8cecc;strokeColor=#b85450;" vertex="1" parent="1">
          <mxGeometry x="1980" y="1110" width="280" height="60" as="geometry" />
        </mxCell>
        <mxCell id="zHE1JwHKK3ZuFAWgDvep-155" style="edgeStyle=orthogonalEdgeStyle;rounded=0;orthogonalLoop=1;jettySize=auto;html=1;entryX=1;entryY=0.5;entryDx=0;entryDy=0;" edge="1" parent="1" source="zHE1JwHKK3ZuFAWgDvep-144" target="zHE1JwHKK3ZuFAWgDvep-122">
          <mxGeometry relative="1" as="geometry">
            <Array as="points">
              <mxPoint x="2120" y="1270" />
              <mxPoint x="2540" y="1270" />
              <mxPoint x="2540" y="760" />
            </Array>
          </mxGeometry>
        </mxCell>
        <mxCell id="zHE1JwHKK3ZuFAWgDvep-144" value="遍历链表结束：&lt;div&gt;newTab[j] = loHead;// 低位链表桶位不变&lt;/div&gt;&lt;div&gt;ewTab[j + oldCap] = hiHead;// 高位链表桶位+oldCap&lt;/div&gt;" style="rounded=0;whiteSpace=wrap;html=1;align=left;fillColor=#f8cecc;strokeColor=#b85450;" vertex="1" parent="1">
          <mxGeometry x="1980" y="1190" width="280" height="60" as="geometry" />
        </mxCell>
        <mxCell id="zHE1JwHKK3ZuFAWgDvep-147" value="结束" style="ellipse;whiteSpace=wrap;html=1;" vertex="1" parent="1">
          <mxGeometry x="2060" y="1300" width="120" height="40" as="geometry" />
        </mxCell>
      </root>
    </mxGraphModel>
  </diagram>
</mxfile>
